<?xml version="1.0" encoding="utf-8"?>
<svg xmlns="http://www.w3.org/2000/svg" viewBox="0 0 800 800" xmlns:bx="https://boxy-svg.com" width="800px" height="800px"><defs><linearGradient id="linear-gradient" x1="363.72" y1="430.85" x2="447.64" y2="340.47" gradientTransform="matrix(1.79, 0.02, 0.02, -1.79, -253.5, 1172.41)" gradientUnits="userSpaceOnUse"><stop offset="0" stop-color="#32369b"/><stop offset="0.26" stop-color="#4f5eb1"/><stop offset="0.85" stop-color="#97c2e9"/><stop offset="1" stop-color="#aadcf7"/></linearGradient><linearGradient id="linear-gradient-2" x1="208.22" y1="429.02" x2="292.14" y2="338.64" gradientTransform="matrix(-1.79, 0.02, -0.02, -1.79, 775.5, 1172.41)" href="#linear-gradient"/><linearGradient id="linear-gradient-3" x1="315.13" y1="484.64" x2="404.68" y2="485.68" gradientTransform="matrix(1.79, 0.02, 0.02, -1.79, -253.5, 1172.41)" gradientUnits="userSpaceOnUse"><stop offset="0" stop-color="#aadcf7"/><stop offset="0.12" stop-color="#a5d5f3"/><stop offset="0.29" stop-color="#96c0e6"/><stop offset="0.5" stop-color="#7f9fd3"/><stop offset="0.75" stop-color="#5e70b7"/><stop offset="1" stop-color="#363795"/></linearGradient><linearGradient id="linear-gradient-4" x1="347.86" y1="363.09" x2="385.6" y2="380.34" gradientTransform="matrix(1.79, 0.02, 0.02, -1.79, -253.5, 1172.41)" gradientUnits="userSpaceOnUse"><stop offset="0" stop-color="#aadcf7"/><stop offset="0.12" stop-color="#a5d5f3"/><stop offset="0.31" stop-color="#96c0e8"/><stop offset="0.54" stop-color="#7f9fd6"/><stop offset="0.79" stop-color="#5e71bd"/><stop offset="1" stop-color="#3f45a5"/></linearGradient><linearGradient id="linear-gradient-5" x1="394.51" y1="224.61" x2="405.56" y2="324" gradientTransform="matrix(1, 0, 0, 1, 0, 0)" href="#linear-gradient-4"/><linearGradient id="linear-gradient-6" x1="117.5" y1="233.5" x2="126.56" y2="315" gradientTransform="translate(126 396) rotate(-90)" gradientUnits="userSpaceOnUse"><stop offset="0" stop-color="#32b7e0"/><stop offset="0.02" stop-color="#2d9dc7"/><stop offset="0.05" stop-color="#2576a0"/><stop offset="0.09" stop-color="#1f547f"/><stop offset="0.13" stop-color="#193865"/><stop offset="0.17" stop-color="#152350"/><stop offset="0.21" stop-color="#121441"/><stop offset="0.27" stop-color="#110b39"/><stop offset="0.35" stop-color="#100836"/><stop offset="0.47" stop-color="#110b39"/><stop offset="0.57" stop-color="#131543"/><stop offset="0.66" stop-color="#162653"/><stop offset="0.75" stop-color="#1b3e6b"/><stop offset="0.83" stop-color="#215d89"/><stop offset="0.91" stop-color="#2883ae"/><stop offset="0.99" stop-color="#31afd9"/><stop offset="1" stop-color="#32b7e0"/></linearGradient><linearGradient id="linear-gradient-7" x1="360.79" y1="259.36" x2="426.78" y2="307.31" gradientUnits="userSpaceOnUse"><stop offset="0" stop-color="#79678d"/><stop offset="0.32" stop-color="#100836"/><stop offset="0.75" stop-color="#1c1340"/><stop offset="0.82" stop-color="#1d1441"/><stop offset="1" stop-color="#79678d"/></linearGradient><linearGradient id="linear-gradient-8" x1="206.98" y1="278.55" x2="205.66" y2="368.74" gradientTransform="matrix(-1.79, 0.02, -0.02, -1.79, 775.5, 1172.41)" gradientUnits="userSpaceOnUse"><stop offset="0" style="stop-color: rgb(178, 178, 178);"/><stop offset="0.18" style="stop-color: rgb(151, 151, 151);"/><stop offset="0.54" style="stop-color: rgb(134, 134, 134);"/><stop offset="0.64" style="stop-color: rgb(136, 136, 136);"/><stop offset="0.7" style="stop-color: rgb(111, 111, 111);"/><stop offset="0.79" style="stop-color: rgb(88, 88, 88);"/><stop offset="0.88" style="stop-color: rgb(81, 81, 81);"/><stop offset="0.98" style="stop-color: rgb(77, 77, 77);"/><stop offset="1" style="stop-color: rgb(66, 66, 66);"/></linearGradient><linearGradient id="linear-gradient-9" x1="206.58" y1="306.45" x2="205.66" y2="368.63" gradientTransform="matrix(-1.79, 0.02, -0.02, -1.79, 775.5, 1172.41)" gradientUnits="userSpaceOnUse" spreadMethod="pad"><stop offset="0" style="stop-color: rgb(233, 233, 233);"/><stop offset="0.19" style="stop-color: rgb(215, 215, 215);"/><stop offset="0.57" style="stop-color: rgb(179, 179, 179);"/><stop offset="0.64" style="stop-color: rgb(173, 173, 173);"/><stop offset="0.76" style="stop-color: rgb(162, 162, 162);"/><stop offset="0.92" style="stop-color: rgb(158, 157, 157);"/><stop offset="1" style="stop-color: rgb(167, 167, 167);"/></linearGradient><bx:export><bx:file format="svg"/></bx:export></defs><g id="Rocket" data-name="Rocket" style="transform-origin: 400px 401px;" transform="matrix(0.866026, 0.5, 0.5, -0.866026, 0.000017, 0.000004)"><g id="Fins"><polygon id="fin_2" data-name="fin 2" points="474.68 371.86 544.64 444.53 510.01 643.48 485.6 513.8 427.59 483.55 474.68 371.86" style="fill: url(#linear-gradient)"/><polygon id="fin_1" data-name="fin 1" points="372.41 483.55 314.4 513.8 289.99 643.48 255.36 444.53 325.32 371.86 372.41 483.55" style="fill: url(#linear-gradient-2)"/></g><g id="Body"><path id="Path" d="M442.65,515.42S480,470,480,330c0-50,4.76-158.12-80-220-84.76,61.88-80,170-80,220,0,140,37.35,185.42,37.35,185.42Z" style="fill: url(#linear-gradient-3)"/><path id="Path-2" data-name="Path" d="M442.89,515l-4.42,9c-1.43,3.13-5,6-8.47,6H370c-3.44,0-7-2.87-8.47-6l-4.42-9Z" style="fill: url(#linear-gradient-4)"/></g><g id="Window"><circle id="ellipse" cx="400" cy="274" r="50" style="fill: url(#linear-gradient-5)"/><circle id="ellipse-2" data-name="ellipse" cx="400" cy="274" r="41" style="fill: url(#linear-gradient-6)"/><path id="shadow" d="M401.5,310a40.5,40.5,0,0,1-37.77-55.12,41,41,0,1,0,76.76,25.56A40.5,40.5,0,0,1,401.5,310Z" style="mix-blend-mode: multiply;isolation: isolate;opacity: 0.699999988079071;fill: url(#linear-gradient-7)"/></g><g id="Flame"><path id="big_flame" data-name="big flame" d="M430,530s44.91,38.16-30,162c-74.91-123.84-30-162-30-162" style="fill: url(#linear-gradient-8)"/><path id="small_flame" data-name="small flame" d="M421.64,530S452.41,573.39,400,660c-52.41-86.61-21.64-130-21.64-130" style="fill: url(&quot;#linear-gradient-9&quot;); paint-order: fill;"/></g></g><rect x="268.691" y="73.953" width="0.686" height="105.169" style="fill: rgb(216, 216, 216); stroke: rgb(150, 150, 150);"/><rect x="365.326" y="144.507" width="0.345" height="57.974" style="fill: rgb(216, 216, 216); stroke: rgb(191, 191, 191);" transform="matrix(1, 0, 0, 1, -62.449532, -101.211311)"/><rect x="333.328" y="89.414" width="0.433" height="79.362" style="fill: rgb(216, 216, 216); stroke: rgb(150, 150, 150);"/><rect x="316.029" y="153.966" width="0.765" height="60.405" style="fill: rgb(216, 216, 216); stroke: rgb(97, 97, 97);"/><rect x="348.982" y="233.53" width="0.21" height="37.635" style="fill: rgb(216, 216, 216); stroke: rgb(150, 150, 150);" transform="matrix(1, 0, 0, 1, -62.449532, -101.211311)"/><rect x="439.502" y="144.844" width="0.004" height="85.292" style="fill: rgb(216, 216, 216); stroke: rgb(150, 150, 150);" transform="matrix(1, 0, 0, 1, -62.449532, -101.211311)"/><rect x="422.354" y="234.257" width="0.404" height="42.77" style="fill: rgb(216, 216, 216); stroke: rgb(143, 143, 143);" transform="matrix(1, 0, 0, 1, -62.449532, -101.211311)"/><rect x="418.481" y="153.289" width="0.126" height="38.909" style="fill: rgb(216, 216, 216); stroke: rgb(191, 191, 191);" transform="matrix(1, 0, 0, 1, -62.449532, -101.211311)"/><rect x="353.941" y="302.057" width="0.341" height="64.145" style="fill: rgb(216, 216, 216); stroke: rgb(97, 97, 97);" transform="matrix(1, 0, 0, 1, -62.449532, -101.211311)"/></svg>